<svg xmlns="http://www.w3.org/2000/svg" xmlns:xlink="http://www.w3.org/1999/xlink" version="1.1" x="0px" y="0px" viewBox="0 0 100 100" enable-background="new 0 0 100 100" xml:space="preserve"><g><path d="M56.832,22.681c4.766,0,8.623-3.867,8.623-8.633c0-4.761-3.857-8.623-8.623-8.623c-4.763,0-8.63,3.862-8.63,8.623   C48.202,18.813,52.069,22.681,56.832,22.681z"></path><path d="M55.68,55.083l1.064-8.584c3.818,3.574,9.424,5.781,14.893,5.781c0.098,0,0.186,0,0.283,0   c1.797-0.029,3.232-1.504,3.203-3.296c-0.02-1.782-1.475-3.208-3.242-3.208c-0.02,0-0.039,0-0.039,0   c-4.385,0.068-9.023-1.948-11.572-5c-1.338-1.587-2.051-3.374-2.148-5.327l0.234-1.865c0.42-3.442-1.563-6.621-4.629-7.861   c-0.557-0.469-1.276-0.742-2.058-0.752h-0.088c-13.074,0-23.972,9.326-27.117,23.237c-0.4,1.748,0.703,3.486,2.451,3.887   c0.244,0.059,0.479,0.078,0.723,0.078c1.484,0,2.822-1.025,3.164-2.529c1.768-7.813,6.367-13.657,12.48-16.416l-2.51,20.234   c-0.371,2.959,1.045,5.723,3.398,7.236c2.546,10.225-3.008,15.371-14.277,24.6c-0.703,0.576-1.416,1.162-2.139,1.758   c-1.807,1.494-2.061,4.17-0.566,5.977c0.84,1.016,2.051,1.543,3.281,1.543c0.947,0,1.904-0.313,2.705-0.967   c0.703-0.586,1.416-1.172,2.109-1.738c9.49-7.783,18.569-15.225,17.934-27.803c7.207,6.406,13.398,15.596,13.906,26.455   c0.107,2.285,1.982,4.053,4.238,4.053c0.068,0,0.137,0,0.205,0c2.344-0.107,4.16-2.095,4.043-4.443   C74.918,75.054,65.611,62.769,55.68,55.083z"></path></g></svg>