<svg viewBox="0 0 250 250" xmlns="http://www.w3.org/2000/svg" xml:space="preserve" style="fill-rule:evenodd;clip-rule:evenodd;stroke-linejoin:round;stroke-miterlimit:2">
	<path d="M108.934 4.487a33.994 33.994 0 0 1 31.622 0 1759.95 1759.95 0 0 1 82.693 46.518 33.996 33.996 0 0 1 16.467 28.136 1661.25 1661.25 0 0 1 0 91.657 33.995 33.995 0 0 1-16.467 28.136 1759.968 1759.968 0 0 1-82.693 46.519 34 34 0 0 1-31.622 0 1759.968 1759.968 0 0 1-82.693-46.519 33.995 33.995 0 0 1-16.467-28.136 1661.25 1661.25 0 0 1 0-91.657 33.997 33.997 0 0 1 16.468-28.136 1759.412 1759.412 0 0 1 82.692-46.518Z" style="fill:#074d39"/>
	<path d="M110.619 46.699c-.897 1.658-2.316 4.39-2.729 6.442-.387 1.922-.111 3.971.248 5.875.359 1.903 1.189 3.904 1.904 5.545.654 1.502 1.66 3.203 2.384 4.298.552.835 1.541 1.366 1.959 2.275.535 1.164 1.63 3.129 1.254 4.71-.38 1.604-2.395 3.253-3.539 4.918-2.422 3.523-8.589 12.336-10.992 16.219-1.379 2.23-3.175 4.471-3.425 7.081-.622 6.517-.539 25.859-.311 32.02.065 1.741.834 3.563 1.681 4.948.831 1.361 2.366 2.942 3.399 3.366.898.369 2.338-.13 2.796-.821.457-.692-.16-2.408-.052-3.328.09-.761.238-1.899.702-2.191.463-.291 1.637.583 2.078.44.441-.143.635-.829.569-1.296-.089-.624-.673-1.661-1.099-2.447-.499-.922-1.467-2.279-1.899-3.084a8.914 8.914 0 0 1-.694-1.749c-.207-.713-.603-1.669-.546-2.529.228-3.492.963-14.433 1.915-18.421.518-2.168 2.915-5.649 3.8-5.504.884.144 1.222 4.209 1.509 6.373.312 2.353.399 5.77.365 7.743-.024 1.378-.399 2.727-.568 4.095-.299 2.417-1.148 8.124-1.223 10.412-.037 1.134.481 2.322.775 3.314.267.901.571 1.798.988 2.639.484.978 1.855 1.977 1.918 3.227.078 1.555-.859 4.128-1.451 6.107-.586 1.961-1.395 4.097-2.098 5.77-.616 1.465-1.02 3.123-2.12 4.269-4.171 4.347-18.639 17.544-22.905 21.811-1.095 1.095-2.556 2.544-2.689 3.79-.134 1.245 1.126 2.532 1.887 3.682 1.108 1.673 3.09 4.339 4.761 6.357 1.658 2 3.62 4.252 5.266 5.746 1.388 1.259 3.376 2.49 4.611 3.215.868.508 1.871 1.203 2.798 1.129.928-.074 2.439-.572 2.769-1.573.329-1.002-.386-3.142-.79-4.439-.369-1.184-1.131-2.21-1.636-3.343-.684-1.536-3.169-3.869-2.467-5.872.816-2.329 4.92-5.767 7.361-8.1 2.259-2.159 5.293-4.3 7.286-5.899 1.549-1.244 3.339-2.334 4.673-3.7a20.253 20.253 0 0 0 3.328-4.493c1.273-2.358 2.971-8.837 4.312-9.656 1.34-.82 2.792 3.227 3.731 4.738.832 1.339 1.386 2.84 1.903 4.329.758 2.184 1.738 5.859 2.648 8.776 1.022 3.276 2.446 7.488 3.485 10.884.963 3.151 1.936 7.042 2.744 9.494.587 1.781 1.235 3.721 2.105 5.217.818 1.406 1.775 3.537 3.116 3.759 1.34.221 3.468-1.591 4.927-2.43 1.337-.768 2.547-1.74 3.826-2.602 1.499-1.01 3.584-2.39 5.171-3.46 1.454-.98 2.921-1.942 4.35-2.959 1.765-1.257 5.339-3.444 6.239-4.58.495-.623-.223-1.728-.836-2.236-.643-.534-1.967-.933-3.025-.969-1.379-.046-3.498.467-5.248.69-1.894.242-4.61 1.874-6.117.759-1.508-1.115-2.04-4.934-2.927-7.45-.935-2.651-1.907-5.602-2.681-8.455-.823-3.038-1.717-7.552-2.26-9.773-.293-1.195-.514-2.467-.999-3.554-.479-1.075-1.256-1.991-1.91-2.969-.823-1.232-2.088-2.905-3.031-4.423-1.395-2.244-3.952-6.555-5.337-9.044-1.07-1.922-2.842-3.694-2.973-5.889-.18-3.038 1.079-10.498 1.891-12.337.438-.992 2.161.594 2.983 1.301 1.359 1.168 4.117 4.459 5.171 5.708.457.542.801 1.172 1.156 1.785.443.764 1.162 1.958 1.499 2.798.285.71.29 1.631.522 2.236.197.513.564.944.873 1.398.355.522.855 1.483 1.26 1.734.339.21.998.082 1.175-.224.177-.306-.219-1.163-.113-1.611.1-.425.385-1.15.745-1.076.361.075 1.054.933 1.418 1.523.409.662.694 1.99 1.034 2.451.208.283.676.435 1.007.315.346-.124.872-.601 1.074-1.063.23-.529.275-1.397.307-2.106.034-.758.138-1.665-.101-2.446-.255-.835-.866-1.763-1.43-2.562-.661-.936-1.473-1.403-2.533-3.051-.178-.276-2.614-3.73-2.813-4.027-1.142-1.702-4.262-5.25-5.904-7.281-1.321-1.633-2.924-3.552-3.951-4.908-.788-1.041-1.96-1.95-2.214-3.23-.414-2.089.033-6.572-.274-9.303-.27-2.403-.858-4.813-1.568-7.082-.703-2.249-1.876-4.882-2.691-6.536-.595-1.208-1.997-2.159-2.197-3.391-.201-1.233.474-3.269.995-4.005.419-.59 1.409-.417 2.132-.408.925.011 2.547.592 3.417.475.712-.095 1.42-.709 1.806-1.176.363-.438.346-1.159.515-1.625.144-.399.39-.761.497-1.171.126-.482.108-1.174.259-1.724.151-.548.539-1.019.649-1.576.148-.752-.188-2.244.238-2.938.425-.694 1.908-.696 2.314-1.225.395-.516.179-1.299.118-1.946a14.993 14.993 0 0 0-.559-2.726c-.365-1.19-1.43-2.857-1.63-4.413-.218-1.695.284-4.362.324-5.759.025-.875.025-1.756-.084-2.625-.143-1.132-.07-2.942-.772-4.168-.725-1.266-2.31-2.628-3.58-3.43-1.204-.76-2.651-1.073-4.04-1.384-1.67-.374-3.967-.778-5.979-.858-2.212-.087-5.087-.155-7.297.334-2.117.469-4.526 1.585-5.961 2.603-1.195.848-1.955 2.217-2.652 3.506Z" style="fill:#fff"/>
</svg>
